<svg width="100" height="100" viewBox="0 0 100 100" xmlns="http://www.w3.org/2000/svg"><mask id="satori_om-id"><rect x="0" y="0" width="100" height="100" fill="#fff"/></mask><rect x="0" y="0" width="100" height="100" fill="#fff"/><mask id="satori_om-id-0"><rect x="20" y="17" width="61" height="66" fill="#fff"/></mask><path fill="black" d="M21.2 38.5L39.3 38.5L39.3 44.7L21.2 44.7L21.2 38.5ZM25.3 60.4L25.3 31.3L33.6 31.3L33.6 59.3Q33.6 60.4 34.0 61.0Q34.3 61.7 35.0 61.9Q35.6 62.2 36.4 62.2L36.4 62.2Q37.0 62.2 37.6 62.1Q38.2 62.0 38.5 61.9L38.5 61.9L39.8 68.1Q39.2 68.3 38.1 68.6Q36.9 68.8 35.3 68.9L35.3 68.9Q32.3 69.0 30.0 68.1Q27.8 67.2 26.5 65.2Q25.3 63.3 25.3 60.4L25.3 60.4ZM53.0 68.5L44.7 68.5L44.7 38.5L52.8 38.5L52.8 43.7L53.1 43.7Q53.9 40.9 55.8 39.5Q57.8 38.1 60.3 38.1L60.3 38.1Q60.9 38.1 61.6 38.1Q62.3 38.2 62.9 38.3L62.9 38.3L62.9 45.7Q62.3 45.6 61.3 45.4Q60.2 45.3 59.4 45.3L59.4 45.3Q57.5 45.3 56.1 46.1Q54.7 46.9 53.8 48.3Q53.0 49.7 53.0 51.5L53.0 51.5L53.0 68.5ZM68.6 69.0L68.6 69.0Q66.7 69.0 65.3 67.6Q63.9 66.2 63.9 64.3L63.9 64.3Q63.9 62.4 65.3 61.0Q66.7 59.7 68.6 59.7L68.6 59.7Q70.5 59.7 71.9 61.0Q73.3 62.4 73.3 64.3L73.3 64.3Q73.3 65.6 72.6 66.7Q72.0 67.7 70.9 68.4Q69.9 69.0 68.6 69.0Z "/></svg>